<?xml version="1.0" encoding="utf-8"?><svg width="800" height="600" xmlns="http://www.w3.org/2000/svg" xmlns:xlink="http://www.w3.org/1999/xlink" style="background-color: white;"><g transform="translate(60,40)"><g transform="translate(10.163934426229503,0)"><rect x="0.7559951226121058" y="393.91" width="14.36390732963013" height="126.08999999999997" fill="#1f77b4"></rect><rect x="15.87589757485435" y="501.156" width="14.36390732963013" height="18.843999999999994" fill="#ff7f0e"></rect><rect x="30.995800027096593" y="503.498" width="14.36390732963013" height="16.50200000000001" fill="#2ca02c"></rect><rect x="46.115702479338836" y="504.164" width="14.36390732963013" height="15.836000000000013" fill="#d62728"></rect><rect x="61.23560493158108" y="498.82800000000003" width="14.36390732963013" height="21.17199999999997" fill="#9467bd"></rect><rect x="76.35550738382332" y="487.082" width="14.36390732963013" height="32.918000000000006" fill="#8c564b"></rect></g><g transform="translate(111.80327868852457,0)"><rect x="0.7559951226121058" y="504.416" width="14.36390732963013" height="15.584000000000003" fill="#1f77b4"></rect><rect x="15.87589757485435" y="505.91200000000003" width="14.36390732963013" height="14.087999999999965" fill="#ff7f0e"></rect><rect x="30.995800027096593" y="507.16999999999996" width="14.36390732963013" height="12.830000000000041" fill="#2ca02c"></rect><rect x="46.115702479338836" y="506.066" width="14.36390732963013" height="13.934000000000026" fill="#d62728"></rect><rect x="61.23560493158108" y="506.932" width="14.36390732963013" height="13.067999999999984" fill="#9467bd"></rect><rect x="76.35550738382332" y="507.59000000000003" width="14.36390732963013" height="12.409999999999968" fill="#8c564b"></rect></g><g transform="translate(213.44262295081964,0)"><rect x="0.7559951226121058" y="500.156" width="14.36390732963013" height="19.843999999999994" fill="#1f77b4"></rect><rect x="15.87589757485435" y="508.66999999999996" width="14.36390732963013" height="11.330000000000041" fill="#ff7f0e"></rect><rect x="30.995800027096593" y="509.99" width="14.36390732963013" height="10.009999999999991" fill="#2ca02c"></rect><rect x="46.115702479338836" y="509.174" width="14.36390732963013" height="10.826000000000022" fill="#d62728"></rect><rect x="61.23560493158108" y="509.41200000000003" width="14.36390732963013" height="10.587999999999965" fill="#9467bd"></rect><rect x="76.35550738382332" y="510.24" width="14.36390732963013" height="9.759999999999991" fill="#8c564b"></rect></g><g transform="translate(315.0819672131147,0)"><rect x="0.7559951226121058" y="508.754" width="14.36390732963013" height="11.245999999999981" fill="#1f77b4"></rect><rect x="15.87589757485435" y="506.34000000000003" width="14.36390732963013" height="13.659999999999968" fill="#ff7f0e"></rect><rect x="30.995800027096593" y="509.49" width="14.36390732963013" height="10.509999999999991" fill="#2ca02c"></rect><rect x="46.115702479338836" y="509.24399999999997" width="14.36390732963013" height="10.756000000000029" fill="#d62728"></rect><rect x="61.23560493158108" y="441.158" width="14.36390732963013" height="78.84199999999998" fill="#9467bd"></rect><rect x="76.35550738382332" y="513.086" width="14.36390732963013" height="6.913999999999987" fill="#8c564b"></rect></g><g transform="translate(416.7213114754098,0)"><rect x="0.7559951226121058" y="493.596" width="14.36390732963013" height="26.403999999999996" fill="#1f77b4"></rect><rect x="15.87589757485435" y="479.74999999999994" width="14.36390732963013" height="40.25000000000006" fill="#ff7f0e"></rect><rect x="30.995800027096593" y="505.74399999999997" width="14.36390732963013" height="14.256000000000029" fill="#2ca02c"></rect><rect x="46.115702479338836" y="493.764" width="14.36390732963013" height="26.23599999999999" fill="#d62728"></rect><rect x="61.23560493158108" y="450.172" width="14.36390732963013" height="69.82799999999997" fill="#9467bd"></rect><rect x="76.35550738382332" y="511.91400000000004" width="14.36390732963013" height="8.085999999999956" fill="#8c564b"></rect></g><g transform="translate(518.3606557377049,0)"><rect x="0.7559951226121058" y="126.58800000000004" width="14.36390732963013" height="393.412" fill="#1f77b4"></rect><rect x="15.87589757485435" y="37.916" width="14.36390732963013" height="482.084" fill="#ff7f0e"></rect><rect x="30.995800027096593" y="438.66200000000003" width="14.36390732963013" height="81.33799999999997" fill="#2ca02c"></rect><rect x="46.115702479338836" y="288.334" width="14.36390732963013" height="231.666" fill="#d62728"></rect><rect x="61.23560493158108" y="362.99399999999997" width="14.36390732963013" height="157.00600000000003" fill="#9467bd"></rect><rect x="76.35550738382332" y="443.99399999999997" width="14.36390732963013" height="76.00600000000003" fill="#8c564b"></rect></g><g transform="translate(0,520)" fill="none" font-size="10" font-family="sans-serif" text-anchor="middle"><path class="domain" stroke="currentColor" d="M0.5,6V0.5H620.5V6"></path><g class="tick" opacity="1" transform="translate(55.901639344262286,0)"><line stroke="currentColor" y2="6"></line><text fill="currentColor" y="9" dy="0.71em">1e1</text></g><g class="tick" opacity="1" transform="translate(157.54098360655735,0)"><line stroke="currentColor" y2="6"></line><text fill="currentColor" y="9" dy="0.71em">1e2</text></g><g class="tick" opacity="1" transform="translate(259.18032786885243,0)"><line stroke="currentColor" y2="6"></line><text fill="currentColor" y="9" dy="0.71em">1e3</text></g><g class="tick" opacity="1" transform="translate(360.81967213114746,0)"><line stroke="currentColor" y2="6"></line><text fill="currentColor" y="9" dy="0.71em">1e4</text></g><g class="tick" opacity="1" transform="translate(462.45901639344254,0)"><line stroke="currentColor" y2="6"></line><text fill="currentColor" y="9" dy="0.71em">1e5</text></g><g class="tick" opacity="1" transform="translate(564.0983606557377,0)"><line stroke="currentColor" y2="6"></line><text fill="currentColor" y="9" dy="0.71em">1e6</text></g></g><text x="310" y="550" text-anchor="middle" font-size="12px" fill="black">Unit: times</text><g fill="none" font-size="10" font-family="sans-serif" text-anchor="end"><path class="domain" stroke="currentColor" d="M-6,520.5H0.5V0.5H-6"></path><g class="tick" opacity="1" transform="translate(0,520.5)"><line stroke="currentColor" x2="-6"></line><text fill="currentColor" x="-9" dy="0.32em">0</text></g><g class="tick" opacity="1" transform="translate(0,480.5)"><line stroke="currentColor" x2="-6"></line><text fill="currentColor" x="-9" dy="0.32em">200</text></g><g class="tick" opacity="1" transform="translate(0,440.5)"><line stroke="currentColor" x2="-6"></line><text fill="currentColor" x="-9" dy="0.32em">400</text></g><g class="tick" opacity="1" transform="translate(0,400.49999999999994)"><line stroke="currentColor" x2="-6"></line><text fill="currentColor" x="-9" dy="0.32em">600</text></g><g class="tick" opacity="1" transform="translate(0,360.5)"><line stroke="currentColor" x2="-6"></line><text fill="currentColor" x="-9" dy="0.32em">800</text></g><g class="tick" opacity="1" transform="translate(0,320.5)"><line stroke="currentColor" x2="-6"></line><text fill="currentColor" x="-9" dy="0.32em">1,000</text></g><g class="tick" opacity="1" transform="translate(0,280.5)"><line stroke="currentColor" x2="-6"></line><text fill="currentColor" x="-9" dy="0.32em">1,200</text></g><g class="tick" opacity="1" transform="translate(0,240.5)"><line stroke="currentColor" x2="-6"></line><text fill="currentColor" x="-9" dy="0.32em">1,400</text></g><g class="tick" opacity="1" transform="translate(0,200.49999999999997)"><line stroke="currentColor" x2="-6"></line><text fill="currentColor" x="-9" dy="0.32em">1,600</text></g><g class="tick" opacity="1" transform="translate(0,160.5)"><line stroke="currentColor" x2="-6"></line><text fill="currentColor" x="-9" dy="0.32em">1,800</text></g><g class="tick" opacity="1" transform="translate(0,120.49999999999997)"><line stroke="currentColor" x2="-6"></line><text fill="currentColor" x="-9" dy="0.32em">2,000</text></g><g class="tick" opacity="1" transform="translate(0,80.5)"><line stroke="currentColor" x2="-6"></line><text fill="currentColor" x="-9" dy="0.32em">2,200</text></g><g class="tick" opacity="1" transform="translate(0,40.49999999999997)"><line stroke="currentColor" x2="-6"></line><text fill="currentColor" x="-9" dy="0.32em">2,400</text></g><g class="tick" opacity="1" transform="translate(0,0.5)"><line stroke="currentColor" x2="-6"></line><text fill="currentColor" x="-9" dy="0.32em">2,600</text></g></g><text x="-260" y="-40" transform="rotate(-90)" text-anchor="middle" font-size="12px" fill="black">Unit: ns/op</text><g transform="translate(640, 0)"><g transform="translate(0, 0)"><rect width="15" height="15" fill="#1f77b4"></rect><text x="20" y="12" text-anchor="start" font-size="10px" fill="#1f77b4">SetQueue</text></g><g transform="translate(0, 20)"><rect width="15" height="15" fill="#ff7f0e"></rect><text x="20" y="12" text-anchor="start" font-size="10px" fill="#ff7f0e">MapQueue</text></g><g transform="translate(0, 40)"><rect width="15" height="15" fill="#2ca02c"></rect><text x="20" y="12" text-anchor="start" font-size="10px" fill="#2ca02c">ArrayQueue</text></g><g transform="translate(0, 60)"><rect width="15" height="15" fill="#d62728"></rect><text x="20" y="12" text-anchor="start" font-size="10px" fill="#d62728">DequeQueue</text></g><g transform="translate(0, 80)"><rect width="15" height="15" fill="#9467bd"></rect><text x="20" y="12" text-anchor="start" font-size="10px" fill="#9467bd">CircularQueue</text></g><g transform="translate(0, 100)"><rect width="15" height="15" fill="#8c564b"></rect><text x="20" y="12" text-anchor="start" font-size="10px" fill="#8c564b">LinkedListQueue</text></g></g></g><text x="400" y="20" text-anchor="middle" font-size="16px" font-weight="bold">Enqueue Benchmark</text><text x="400" y="40" text-anchor="middle" font-size="12px">Lower is better</text></svg>