<?xml version="1.0" encoding="utf-8"?><svg width="800" height="600" xmlns="http://www.w3.org/2000/svg" xmlns:xlink="http://www.w3.org/1999/xlink" style="background-color: white;"><g transform="translate(60,40)"><g transform="translate(10.163934426229503,0)"><rect x="0.45510154147296333" y="438.26545454545453" width="8.646929287986298" height="81.73454545454547" fill="#1f77b4"></rect><rect x="9.557132370932225" y="433.9116363636363" width="8.646929287986298" height="86.08836363636368" fill="#ff7f0e"></rect><rect x="18.659163200391486" y="348.2534545454546" width="8.646929287986298" height="171.7465454545454" fill="#2ca02c"></rect><rect x="27.76119402985075" y="337.6170909090909" width="8.646929287986298" height="182.3829090909091" fill="#d62728"></rect><rect x="36.86322485931001" y="329.53345454545456" width="8.646929287986298" height="190.46654545454544" fill="#9467bd"></rect><rect x="45.96525568876927" y="320.6603636363636" width="8.646929287986298" height="199.33963636363637" fill="#8c564b"></rect><rect x="55.067286518228535" y="14.76327272727275" width="8.646929287986298" height="505.23672727272725" fill="#e377c2"></rect><rect x="64.1693173476878" y="344.52363636363634" width="8.646929287986298" height="175.47636363636366" fill="#7f7f7f"></rect><rect x="73.27134817714705" y="429.364" width="8.646929287986298" height="90.63600000000002" fill="#bcbd22"></rect><rect x="82.37337900660631" y="352.1818181818182" width="8.646929287986298" height="167.8181818181818" fill="#17becf"></rect></g><g transform="translate(111.80327868852457,0)"><rect x="0.45510154147296333" y="478.2250909090909" width="8.646929287986298" height="41.77490909090909" fill="#1f77b4"></rect><rect x="9.557132370932225" y="481.4112727272727" width="8.646929287986298" height="38.58872727272728" fill="#ff7f0e"></rect><rect x="18.659163200391486" y="482.77745454545453" width="8.646929287986298" height="37.22254545454547" fill="#2ca02c"></rect><rect x="27.76119402985075" y="483.57163636363634" width="8.646929287986298" height="36.428363636363656" fill="#d62728"></rect><rect x="36.86322485931001" y="470.5763636363636" width="8.646929287986298" height="49.423636363636376" fill="#9467bd"></rect><rect x="45.96525568876927" y="464.44509090909094" width="8.646929287986298" height="55.554909090909064" fill="#8c564b"></rect><rect x="55.067286518228535" y="470.5763636363636" width="8.646929287986298" height="49.423636363636376" fill="#e377c2"></rect><rect x="64.1693173476878" y="479.4305454545455" width="8.646929287986298" height="40.569454545454505" fill="#7f7f7f"></rect><rect x="73.27134817714705" y="472.1458181818182" width="8.646929287986298" height="47.854181818181814" fill="#bcbd22"></rect><rect x="82.37337900660631" y="474.3109090909091" width="8.646929287986298" height="45.68909090909091" fill="#17becf"></rect></g><g transform="translate(213.44262295081964,0)"><rect x="0.45510154147296333" y="469.92872727272726" width="8.646929287986298" height="50.07127272727274" fill="#1f77b4"></rect><rect x="9.557132370932225" y="489.8730909090909" width="8.646929287986298" height="30.126909090909123" fill="#ff7f0e"></rect><rect x="18.659163200391486" y="491.036" width="8.646929287986298" height="28.964" fill="#2ca02c"></rect><rect x="27.76119402985075" y="486.5167272727273" width="8.646929287986298" height="33.48327272727272" fill="#d62728"></rect><rect x="36.86322485931001" y="486.08654545454544" width="8.646929287986298" height="33.913454545454556" fill="#9467bd"></rect><rect x="45.96525568876927" y="491.4094545454546" width="8.646929287986298" height="28.590545454545406" fill="#8c564b"></rect><rect x="55.067286518228535" y="488.66763636363635" width="8.646929287986298" height="31.332363636363652" fill="#e377c2"></rect><rect x="64.1693173476878" y="494.2032727272727" width="8.646929287986298" height="25.79672727272731" fill="#7f7f7f"></rect><rect x="73.27134817714705" y="489.71236363636365" width="8.646929287986298" height="30.287636363636352" fill="#bcbd22"></rect><rect x="82.37337900660631" y="490.9981818181818" width="8.646929287986298" height="29.00181818181818" fill="#17becf"></rect></g><g transform="translate(315.0819672131147,0)"><rect x="0.45510154147296333" y="494.4018181818182" width="8.646929287986298" height="25.598181818181786" fill="#1f77b4"></rect><rect x="9.557132370932225" y="494.7989090909091" width="8.646929287986298" height="25.201090909090908" fill="#ff7f0e"></rect><rect x="18.659163200391486" y="492.2272727272727" width="8.646929287986298" height="27.77272727272731" fill="#2ca02c"></rect><rect x="27.76119402985075" y="492.9694545454546" width="8.646929287986298" height="27.030545454545404" fill="#d62728"></rect><rect x="36.86322485931001" y="473.9327272727273" width="8.646929287986298" height="46.06727272727272" fill="#9467bd"></rect><rect x="45.96525568876927" y="493.9810909090909" width="8.646929287986298" height="26.01890909090912" fill="#8c564b"></rect><rect x="55.067286518228535" y="497.17199999999997" width="8.646929287986298" height="22.82800000000003" fill="#e377c2"></rect><rect x="64.1693173476878" y="497.5690909090909" width="8.646929287986298" height="22.430909090909097" fill="#7f7f7f"></rect><rect x="73.27134817714705" y="494.9927272727273" width="8.646929287986298" height="25.00727272727272" fill="#bcbd22"></rect><rect x="82.37337900660631" y="495.5883636363637" width="8.646929287986298" height="24.41163636363632" fill="#17becf"></rect></g><g transform="translate(416.7213114754098,0)"><rect x="0.45510154147296333" y="490.8610909090909" width="8.646929287986298" height="29.138909090909124" fill="#1f77b4"></rect><rect x="9.557132370932225" y="491.23927272727275" width="8.646929287986298" height="28.76072727272725" fill="#ff7f0e"></rect><rect x="18.659163200391486" y="495.57418181818184" width="8.646929287986298" height="24.42581818181816" fill="#2ca02c"></rect><rect x="27.76119402985075" y="494.5530909090909" width="8.646929287986298" height="25.446909090909116" fill="#d62728"></rect><rect x="36.86322485931001" y="495.38509090909093" width="8.646929287986298" height="24.614909090909066" fill="#9467bd"></rect><rect x="45.96525568876927" y="494.95490909090904" width="8.646929287986298" height="25.04509090909096" fill="#8c564b"></rect><rect x="55.067286518228535" y="502.6650909090909" width="8.646929287986298" height="17.334909090909093" fill="#e377c2"></rect><rect x="64.1693173476878" y="499.9185454545455" width="8.646929287986298" height="20.081454545454505" fill="#7f7f7f"></rect><rect x="73.27134817714705" y="491.0312727272727" width="8.646929287986298" height="28.96872727272728" fill="#bcbd22"></rect><rect x="82.37337900660631" y="502.4476363636364" width="8.646929287986298" height="17.552363636363623" fill="#17becf"></rect></g><g transform="translate(518.3606557377049,0)"><rect x="0.45510154147296333" y="451.2512727272727" width="8.646929287986298" height="68.74872727272731" fill="#1f77b4"></rect><rect x="9.557132370932225" y="385.91090909090906" width="8.646929287986298" height="134.08909090909094" fill="#ff7f0e"></rect><rect x="18.659163200391486" y="494.78472727272725" width="8.646929287986298" height="25.215272727272747" fill="#2ca02c"></rect><rect x="27.76119402985075" y="491.6127272727272" width="8.646929287986298" height="28.387272727272773" fill="#d62728"></rect><rect x="36.86322485931001" y="491.2581818181818" width="8.646929287986298" height="28.74181818181819" fill="#9467bd"></rect><rect x="45.96525568876927" y="495.3567272727273" width="8.646929287986298" height="24.643272727272688" fill="#8c564b"></rect><rect x="55.067286518228535" y="495.6025454545454" width="8.646929287986298" height="24.397454545454593" fill="#e377c2"></rect><rect x="64.1693173476878" y="501.69127272727275" width="8.646929287986298" height="18.308727272727253" fill="#7f7f7f"></rect><rect x="73.27134817714705" y="461.8781818181818" width="8.646929287986298" height="58.121818181818185" fill="#bcbd22"></rect><rect x="82.37337900660631" y="500.7221818181818" width="8.646929287986298" height="19.27781818181819" fill="#17becf"></rect></g><g transform="translate(0,520)" fill="none" font-size="10" font-family="sans-serif" text-anchor="middle"><path class="domain" stroke="currentColor" d="M0.5,6V0.5H620.5V6"></path><g class="tick" opacity="1" transform="translate(55.901639344262286,0)"><line stroke="currentColor" y2="6"></line><text fill="currentColor" y="9" dy="0.71em">0</text></g><g class="tick" opacity="1" transform="translate(157.54098360655735,0)"><line stroke="currentColor" y2="6"></line><text fill="currentColor" y="9" dy="0.71em">1e1</text></g><g class="tick" opacity="1" transform="translate(259.18032786885243,0)"><line stroke="currentColor" y2="6"></line><text fill="currentColor" y="9" dy="0.71em">1e2</text></g><g class="tick" opacity="1" transform="translate(360.81967213114746,0)"><line stroke="currentColor" y2="6"></line><text fill="currentColor" y="9" dy="0.71em">1e3</text></g><g class="tick" opacity="1" transform="translate(462.45901639344254,0)"><line stroke="currentColor" y2="6"></line><text fill="currentColor" y="9" dy="0.71em">1e4</text></g><g class="tick" opacity="1" transform="translate(564.0983606557377,0)"><line stroke="currentColor" y2="6"></line><text fill="currentColor" y="9" dy="0.71em">1e5</text></g></g><text x="310" y="550" text-anchor="middle" font-size="12px" fill="black">Operate on the number of existing elements</text><g fill="none" font-size="10" font-family="sans-serif" text-anchor="end"><path class="domain" stroke="currentColor" d="M-6,520.5H0.5V0.5H-6"></path><g class="tick" opacity="1" transform="translate(0,520.5)"><line stroke="currentColor" x2="-6"></line><text fill="currentColor" x="-9" dy="0.32em">0</text></g><g class="tick" opacity="1" transform="translate(0,473.2272727272727)"><line stroke="currentColor" x2="-6"></line><text fill="currentColor" x="-9" dy="0.32em">100</text></g><g class="tick" opacity="1" transform="translate(0,425.95454545454544)"><line stroke="currentColor" x2="-6"></line><text fill="currentColor" x="-9" dy="0.32em">200</text></g><g class="tick" opacity="1" transform="translate(0,378.6818181818182)"><line stroke="currentColor" x2="-6"></line><text fill="currentColor" x="-9" dy="0.32em">300</text></g><g class="tick" opacity="1" transform="translate(0,331.4090909090909)"><line stroke="currentColor" x2="-6"></line><text fill="currentColor" x="-9" dy="0.32em">400</text></g><g class="tick" opacity="1" transform="translate(0,284.1363636363636)"><line stroke="currentColor" x2="-6"></line><text fill="currentColor" x="-9" dy="0.32em">500</text></g><g class="tick" opacity="1" transform="translate(0,236.86363636363637)"><line stroke="currentColor" x2="-6"></line><text fill="currentColor" x="-9" dy="0.32em">600</text></g><g class="tick" opacity="1" transform="translate(0,189.5909090909091)"><line stroke="currentColor" x2="-6"></line><text fill="currentColor" x="-9" dy="0.32em">700</text></g><g class="tick" opacity="1" transform="translate(0,142.3181818181818)"><line stroke="currentColor" x2="-6"></line><text fill="currentColor" x="-9" dy="0.32em">800</text></g><g class="tick" opacity="1" transform="translate(0,95.04545454545452)"><line stroke="currentColor" x2="-6"></line><text fill="currentColor" x="-9" dy="0.32em">900</text></g><g class="tick" opacity="1" transform="translate(0,47.77272727272729)"><line stroke="currentColor" x2="-6"></line><text fill="currentColor" x="-9" dy="0.32em">1,000</text></g><g class="tick" opacity="1" transform="translate(0,0.5)"><line stroke="currentColor" x2="-6"></line><text fill="currentColor" x="-9" dy="0.32em">1,100</text></g></g><text x="-260" y="-40" transform="rotate(-90)" text-anchor="middle" font-size="12px" fill="black">ns/op</text><g transform="translate(640, 0)"><g transform="translate(0, 0)"><rect width="15" height="15" fill="#1f77b4"></rect><text x="20" y="12" text-anchor="start" font-size="10px" fill="#1f77b4">SetQueue</text></g><g transform="translate(0, 20)"><rect width="15" height="15" fill="#ff7f0e"></rect><text x="20" y="12" text-anchor="start" font-size="10px" fill="#ff7f0e">MapQueue</text></g><g transform="translate(0, 40)"><rect width="15" height="15" fill="#2ca02c"></rect><text x="20" y="12" text-anchor="start" font-size="10px" fill="#2ca02c">ArrayQueue</text></g><g transform="translate(0, 60)"><rect width="15" height="15" fill="#d62728"></rect><text x="20" y="12" text-anchor="start" font-size="10px" fill="#d62728">DequeQueue</text></g><g transform="translate(0, 80)"><rect width="15" height="15" fill="#9467bd"></rect><text x="20" y="12" text-anchor="start" font-size="10px" fill="#9467bd">CircularQueue</text></g><g transform="translate(0, 100)"><rect width="15" height="15" fill="#8c564b"></rect><text x="20" y="12" text-anchor="start" font-size="10px" fill="#8c564b">LinkedListQueue</text></g><g transform="translate(0, 120)"><rect width="15" height="15" fill="#e377c2"></rect><text x="20" y="12" text-anchor="start" font-size="10px" fill="#e377c2">LinkedListQueue2</text></g><g transform="translate(0, 140)"><rect width="15" height="15" fill="#7f7f7f"></rect><text x="20" y="12" text-anchor="start" font-size="10px" fill="#7f7f7f">WebpackQueue</text></g><g transform="translate(0, 160)"><rect width="15" height="15" fill="#bcbd22"></rect><text x="20" y="12" text-anchor="start" font-size="10px" fill="#bcbd22">WebpackQueue2</text></g><g transform="translate(0, 180)"><rect width="15" height="15" fill="#17becf"></rect><text x="20" y="12" text-anchor="start" font-size="10px" fill="#17becf">YoctoQueue</text></g></g></g><text x="400" y="20" text-anchor="middle" font-size="16px" font-weight="bold">Enqueue Benchmark</text><text x="400" y="40" text-anchor="middle" font-size="12px">Lower is better</text></svg>