<?xml version="1.0" encoding="utf-8"?><svg width="800" height="600" xmlns="http://www.w3.org/2000/svg" xmlns:xlink="http://www.w3.org/1999/xlink" style="background-color: white;"><g transform="translate(60,40)"><g transform="translate(10.163934426229503,0)"><rect x="0.45510154147296333" y="430.3" width="8.646929287986298" height="89.69999999999999" fill="#1f77b4"></rect><rect x="9.557132370932225" y="423.7844" width="8.646929287986298" height="96.2156" fill="#ff7f0e"></rect><rect x="18.659163200391486" y="294.40840000000003" width="8.646929287986298" height="225.59159999999997" fill="#2ca02c"></rect><rect x="27.76119402985075" y="264.9868" width="8.646929287986298" height="255.01319999999998" fill="#d62728"></rect><rect x="36.86322485931001" y="274.716" width="8.646929287986298" height="245.284" fill="#9467bd"></rect><rect x="45.96525568876927" y="298.7608" width="8.646929287986298" height="221.23919999999998" fill="#8c564b"></rect><rect x="55.067286518228535" y="48.5732" width="8.646929287986298" height="471.4268" fill="#e377c2"></rect><rect x="64.1693173476878" y="328.44759999999997" width="8.646929287986298" height="191.55240000000003" fill="#7f7f7f"></rect><rect x="73.27134817714705" y="420.53959999999995" width="8.646929287986298" height="99.46040000000005" fill="#bcbd22"></rect><rect x="82.37337900660631" y="286.21320000000003" width="8.646929287986298" height="233.78679999999997" fill="#17becf"></rect></g><g transform="translate(111.80327868852457,0)"><rect x="0.45510154147296333" y="475.9976" width="8.646929287986298" height="44.00240000000002" fill="#1f77b4"></rect><rect x="9.557132370932225" y="470.15279999999996" width="8.646929287986298" height="49.84720000000004" fill="#ff7f0e"></rect><rect x="18.659163200391486" y="477.7708" width="8.646929287986298" height="42.22919999999999" fill="#2ca02c"></rect><rect x="27.76119402985075" y="478.192" width="8.646929287986298" height="41.80799999999999" fill="#d62728"></rect><rect x="36.86322485931001" y="469.742" width="8.646929287986298" height="50.25799999999998" fill="#9467bd"></rect><rect x="45.96525568876927" y="458.6816" width="8.646929287986298" height="61.3184" fill="#8c564b"></rect><rect x="55.067286518228535" y="485.5604" width="8.646929287986298" height="34.439599999999984" fill="#e377c2"></rect><rect x="64.1693173476878" y="474.70279999999997" width="8.646929287986298" height="45.29720000000003" fill="#7f7f7f"></rect><rect x="73.27134817714705" y="477.4536" width="8.646929287986298" height="42.546400000000006" fill="#bcbd22"></rect><rect x="82.37337900660631" y="469.7264" width="8.646929287986298" height="50.27359999999999" fill="#17becf"></rect></g><g transform="translate(213.44262295081964,0)"><rect x="0.45510154147296333" y="461.9368" width="8.646929287986298" height="58.063199999999995" fill="#1f77b4"></rect><rect x="9.557132370932225" y="481.4316" width="8.646929287986298" height="38.5684" fill="#ff7f0e"></rect><rect x="18.659163200391486" y="483.18919999999997" width="8.646929287986298" height="36.81080000000003" fill="#2ca02c"></rect><rect x="27.76119402985075" y="479.9132" width="8.646929287986298" height="40.08679999999998" fill="#d62728"></rect><rect x="36.86322485931001" y="488.55559999999997" width="8.646929287986298" height="31.44440000000003" fill="#9467bd"></rect><rect x="45.96525568876927" y="491.3584" width="8.646929287986298" height="28.641599999999983" fill="#8c564b"></rect><rect x="55.067286518228535" y="490.53679999999997" width="8.646929287986298" height="29.46320000000003" fill="#e377c2"></rect><rect x="64.1693173476878" y="489.0444" width="8.646929287986298" height="30.955600000000004" fill="#7f7f7f"></rect><rect x="73.27134817714705" y="484.8844" width="8.646929287986298" height="35.11559999999997" fill="#bcbd22"></rect><rect x="82.37337900660631" y="487.4948" width="8.646929287986298" height="32.5052" fill="#17becf"></rect></g><g transform="translate(315.0819672131147,0)"><rect x="0.45510154147296333" y="487.29200000000003" width="8.646929287986298" height="32.70799999999997" fill="#1f77b4"></rect><rect x="9.557132370932225" y="436.3528" width="8.646929287986298" height="83.6472" fill="#ff7f0e"></rect><rect x="18.659163200391486" y="488.37879999999996" width="8.646929287986298" height="31.621200000000044" fill="#2ca02c"></rect><rect x="27.76119402985075" y="489.84520000000003" width="8.646929287986298" height="30.154799999999966" fill="#d62728"></rect><rect x="36.86322485931001" y="466.0708" width="8.646929287986298" height="53.92919999999998" fill="#9467bd"></rect><rect x="45.96525568876927" y="491.8004" width="8.646929287986298" height="28.199599999999975" fill="#8c564b"></rect><rect x="55.067286518228535" y="491.4312" width="8.646929287986298" height="28.56880000000001" fill="#e377c2"></rect><rect x="64.1693173476878" y="492.7052" width="8.646929287986298" height="27.29480000000001" fill="#7f7f7f"></rect><rect x="73.27134817714705" y="490.5576" width="8.646929287986298" height="29.44240000000002" fill="#bcbd22"></rect><rect x="82.37337900660631" y="494.6448" width="8.646929287986298" height="25.355200000000025" fill="#17becf"></rect></g><g transform="translate(416.7213114754098,0)"><rect x="0.45510154147296333" y="493.12640000000005" width="8.646929287986298" height="26.873599999999954" fill="#1f77b4"></rect><rect x="9.557132370932225" y="318.9212" width="8.646929287986298" height="201.0788" fill="#ff7f0e"></rect><rect x="18.659163200391486" y="490.0896" width="8.646929287986298" height="29.91039999999998" fill="#2ca02c"></rect><rect x="27.76119402985075" y="491.82120000000003" width="8.646929287986298" height="28.178799999999967" fill="#d62728"></rect><rect x="36.86322485931001" y="488.99240000000003" width="8.646929287986298" height="31.007599999999968" fill="#9467bd"></rect><rect x="45.96525568876927" y="499.59" width="8.646929287986298" height="20.410000000000025" fill="#8c564b"></rect><rect x="55.067286518228535" y="499.356" width="8.646929287986298" height="20.644000000000005" fill="#e377c2"></rect><rect x="64.1693173476878" y="500.032" width="8.646929287986298" height="19.968000000000018" fill="#7f7f7f"></rect><rect x="73.27134817714705" y="478.83160000000004" width="8.646929287986298" height="41.16839999999996" fill="#bcbd22"></rect><rect x="82.37337900660631" y="501.12919999999997" width="8.646929287986298" height="18.87080000000003" fill="#17becf"></rect></g><g transform="translate(518.3606557377049,0)"><rect x="0.45510154147296333" y="362.6948" width="8.646929287986298" height="157.3052" fill="#1f77b4"></rect><rect x="9.557132370932225" y="351.88919999999996" width="8.646929287986298" height="168.11080000000004" fill="#ff7f0e"></rect><rect x="18.659163200391486" y="474.0476" width="8.646929287986298" height="45.95240000000001" fill="#2ca02c"></rect><rect x="27.76119402985075" y="428.7608" width="8.646929287986298" height="91.23919999999998" fill="#d62728"></rect><rect x="36.86322485931001" y="477.1104" width="8.646929287986298" height="42.88959999999997" fill="#9467bd"></rect><rect x="45.96525568876927" y="500.2868" width="8.646929287986298" height="19.713199999999972" fill="#8c564b"></rect><rect x="55.067286518228535" y="499.40279999999996" width="8.646929287986298" height="20.597200000000043" fill="#e377c2"></rect><rect x="64.1693173476878" y="485.5656" width="8.646929287986298" height="34.43439999999998" fill="#7f7f7f"></rect><rect x="73.27134817714705" y="411.6684" width="8.646929287986298" height="108.33159999999998" fill="#bcbd22"></rect><rect x="82.37337900660631" y="494.4108" width="8.646929287986298" height="25.589200000000005" fill="#17becf"></rect></g><g transform="translate(0,520)" fill="none" font-size="10" font-family="sans-serif" text-anchor="middle"><path class="domain" stroke="currentColor" d="M0.5,6V0.5H620.5V6"></path><g class="tick" opacity="1" transform="translate(55.901639344262286,0)"><line stroke="currentColor" y2="6"></line><text fill="currentColor" y="9" dy="0.71em">0</text></g><g class="tick" opacity="1" transform="translate(157.54098360655735,0)"><line stroke="currentColor" y2="6"></line><text fill="currentColor" y="9" dy="0.71em">1e1</text></g><g class="tick" opacity="1" transform="translate(259.18032786885243,0)"><line stroke="currentColor" y2="6"></line><text fill="currentColor" y="9" dy="0.71em">1e2</text></g><g class="tick" opacity="1" transform="translate(360.81967213114746,0)"><line stroke="currentColor" y2="6"></line><text fill="currentColor" y="9" dy="0.71em">1e3</text></g><g class="tick" opacity="1" transform="translate(462.45901639344254,0)"><line stroke="currentColor" y2="6"></line><text fill="currentColor" y="9" dy="0.71em">1e4</text></g><g class="tick" opacity="1" transform="translate(564.0983606557377,0)"><line stroke="currentColor" y2="6"></line><text fill="currentColor" y="9" dy="0.71em">1e5</text></g></g><text x="310" y="550" text-anchor="middle" font-size="12px" fill="black">Operate on the number of existing elements</text><g fill="none" font-size="10" font-family="sans-serif" text-anchor="end"><path class="domain" stroke="currentColor" d="M-6,520.5H0.5V0.5H-6"></path><g class="tick" opacity="1" transform="translate(0,520.5)"><line stroke="currentColor" x2="-6"></line><text fill="currentColor" x="-9" dy="0.32em">0</text></g><g class="tick" opacity="1" transform="translate(0,468.5)"><line stroke="currentColor" x2="-6"></line><text fill="currentColor" x="-9" dy="0.32em">100</text></g><g class="tick" opacity="1" transform="translate(0,416.5)"><line stroke="currentColor" x2="-6"></line><text fill="currentColor" x="-9" dy="0.32em">200</text></g><g class="tick" opacity="1" transform="translate(0,364.5)"><line stroke="currentColor" x2="-6"></line><text fill="currentColor" x="-9" dy="0.32em">300</text></g><g class="tick" opacity="1" transform="translate(0,312.5)"><line stroke="currentColor" x2="-6"></line><text fill="currentColor" x="-9" dy="0.32em">400</text></g><g class="tick" opacity="1" transform="translate(0,260.5)"><line stroke="currentColor" x2="-6"></line><text fill="currentColor" x="-9" dy="0.32em">500</text></g><g class="tick" opacity="1" transform="translate(0,208.5)"><line stroke="currentColor" x2="-6"></line><text fill="currentColor" x="-9" dy="0.32em">600</text></g><g class="tick" opacity="1" transform="translate(0,156.50000000000003)"><line stroke="currentColor" x2="-6"></line><text fill="currentColor" x="-9" dy="0.32em">700</text></g><g class="tick" opacity="1" transform="translate(0,104.49999999999997)"><line stroke="currentColor" x2="-6"></line><text fill="currentColor" x="-9" dy="0.32em">800</text></g><g class="tick" opacity="1" transform="translate(0,52.499999999999986)"><line stroke="currentColor" x2="-6"></line><text fill="currentColor" x="-9" dy="0.32em">900</text></g><g class="tick" opacity="1" transform="translate(0,0.5)"><line stroke="currentColor" x2="-6"></line><text fill="currentColor" x="-9" dy="0.32em">1,000</text></g></g><text x="-260" y="-40" transform="rotate(-90)" text-anchor="middle" font-size="12px" fill="black">ns/op</text><g transform="translate(640, 0)"><g transform="translate(0, 0)"><rect width="15" height="15" fill="#1f77b4"></rect><text x="20" y="12" text-anchor="start" font-size="10px" fill="#1f77b4">SetQueue</text></g><g transform="translate(0, 20)"><rect width="15" height="15" fill="#ff7f0e"></rect><text x="20" y="12" text-anchor="start" font-size="10px" fill="#ff7f0e">MapQueue</text></g><g transform="translate(0, 40)"><rect width="15" height="15" fill="#2ca02c"></rect><text x="20" y="12" text-anchor="start" font-size="10px" fill="#2ca02c">ArrayQueue</text></g><g transform="translate(0, 60)"><rect width="15" height="15" fill="#d62728"></rect><text x="20" y="12" text-anchor="start" font-size="10px" fill="#d62728">DequeQueue</text></g><g transform="translate(0, 80)"><rect width="15" height="15" fill="#9467bd"></rect><text x="20" y="12" text-anchor="start" font-size="10px" fill="#9467bd">CircularQueue</text></g><g transform="translate(0, 100)"><rect width="15" height="15" fill="#8c564b"></rect><text x="20" y="12" text-anchor="start" font-size="10px" fill="#8c564b">LinkedListQueue</text></g><g transform="translate(0, 120)"><rect width="15" height="15" fill="#e377c2"></rect><text x="20" y="12" text-anchor="start" font-size="10px" fill="#e377c2">LinkedListQueue2</text></g><g transform="translate(0, 140)"><rect width="15" height="15" fill="#7f7f7f"></rect><text x="20" y="12" text-anchor="start" font-size="10px" fill="#7f7f7f">WebpackQueue</text></g><g transform="translate(0, 160)"><rect width="15" height="15" fill="#bcbd22"></rect><text x="20" y="12" text-anchor="start" font-size="10px" fill="#bcbd22">WebpackQueue2</text></g><g transform="translate(0, 180)"><rect width="15" height="15" fill="#17becf"></rect><text x="20" y="12" text-anchor="start" font-size="10px" fill="#17becf">YoctoQueue</text></g></g></g><text x="400" y="20" text-anchor="middle" font-size="16px" font-weight="bold">Enqueue Benchmark</text><text x="400" y="40" text-anchor="middle" font-size="12px">Lower is better</text></svg>