<?xml version="1.0" encoding="utf-8"?><svg width="800" height="600" xmlns="http://www.w3.org/2000/svg" xmlns:xlink="http://www.w3.org/1999/xlink" style="background-color: white;"><g transform="translate(60,40)"><g transform="translate(10.163934426229503,0)"><rect x="0.7559951226121058" y="517.98097" width="14.36390732963013" height="2.0190300000000434" fill="#1f77b4"></rect><rect x="15.87589757485435" y="518.9167424999999" width="14.36390732963013" height="1.0832575000000588" fill="#ff7f0e"></rect><rect x="30.995800027096593" y="519.5544575" width="14.36390732963013" height="0.44554249999998774" fill="#2ca02c"></rect><rect x="46.115702479338836" y="519.1861025" width="14.36390732963013" height="0.8138975000000528" fill="#d62728"></rect><rect x="61.23560493158108" y="519.286365" width="14.36390732963013" height="0.7136349999999538" fill="#9467bd"></rect><rect x="76.35550738382332" y="519.4285525" width="14.36390732963013" height="0.5714474999999766" fill="#8c564b"></rect></g><g transform="translate(111.80327868852457,0)"><rect x="0.7559951226121058" y="519.5869575" width="14.36390732963013" height="0.41304249999996046" fill="#1f77b4"></rect><rect x="15.87589757485435" y="519.4691775" width="14.36390732963013" height="0.5308224999999993" fill="#ff7f0e"></rect><rect x="30.995800027096593" y="519.7454275" width="14.36390732963013" height="0.25457249999999476" fill="#2ca02c"></rect><rect x="46.115702479338836" y="519.5870225" width="14.36390732963013" height="0.4129775000000109" fill="#d62728"></rect><rect x="61.23560493158108" y="519.6504625" width="14.36390732963013" height="0.3495374999999967" fill="#9467bd"></rect><rect x="76.35550738382332" y="519.727845" width="14.36390732963013" height="0.2721549999999979" fill="#8c564b"></rect></g><g transform="translate(213.44262295081964,0)"><rect x="0.7559951226121058" y="519.6033699999999" width="14.36390732963013" height="0.39663000000007287" fill="#1f77b4"></rect><rect x="15.87589757485435" y="519.4406425" width="14.36390732963013" height="0.5593575000000328" fill="#ff7f0e"></rect><rect x="30.995800027096593" y="519.34077" width="14.36390732963013" height="0.6592299999999796" fill="#2ca02c"></rect><rect x="46.115702479338836" y="519.60181" width="14.36390732963013" height="0.3981899999999996" fill="#d62728"></rect><rect x="61.23560493158108" y="519.675065" width="14.36390732963013" height="0.3249349999999822" fill="#9467bd"></rect><rect x="76.35550738382332" y="519.6681425" width="14.36390732963013" height="0.3318574999999555" fill="#8c564b"></rect></g><g transform="translate(315.0819672131147,0)"><rect x="0.7559951226121058" y="519.8036675" width="14.36390732963013" height="0.19633250000003954" fill="#1f77b4"></rect><rect x="15.87589757485435" y="519.6330425" width="14.36390732963013" height="0.36695750000001226" fill="#ff7f0e"></rect><rect x="30.995800027096593" y="515.1156075" width="14.36390732963013" height="4.88439249999999" fill="#2ca02c"></rect><rect x="46.115702479338836" y="519.5814325" width="14.36390732963013" height="0.41856749999999465" fill="#d62728"></rect><rect x="61.23560493158108" y="519.5247850000001" width="14.36390732963013" height="0.47521499999993466" fill="#9467bd"></rect><rect x="76.35550738382332" y="519.7359375" width="14.36390732963013" height="0.26406250000002274" fill="#8c564b"></rect></g><g transform="translate(416.7213114754098,0)"><rect x="0.7559951226121058" y="519.134915" width="14.36390732963013" height="0.8650850000000219" fill="#1f77b4"></rect><rect x="15.87589757485435" y="518.3981075" width="14.36390732963013" height="1.6018924999999626" fill="#ff7f0e"></rect><rect x="30.995800027096593" y="476.6153275" width="14.36390732963013" height="43.38467250000002" fill="#2ca02c"></rect><rect x="46.115702479338836" y="519.54734" width="14.36390732963013" height="0.45266000000003714" fill="#d62728"></rect><rect x="61.23560493158108" y="519.60194" width="14.36390732963013" height="0.39805999999998676" fill="#9467bd"></rect><rect x="76.35550738382332" y="519.7209875" width="14.36390732963013" height="0.27901250000002165" fill="#8c564b"></rect></g><g transform="translate(518.3606557377049,0)"><rect x="0.7559951226121058" y="516.442485" width="14.36390732963013" height="3.5575149999999667" fill="#1f77b4"></rect><rect x="15.87589757485435" y="513.3808875" width="14.36390732963013" height="6.619112500000028" fill="#ff7f0e"></rect><rect x="30.995800027096593" y="38.31096749999999" width="14.36390732963013" height="481.6890325" fill="#2ca02c"></rect><rect x="46.115702479338836" y="518.10837" width="14.36390732963013" height="1.8916299999999637" fill="#d62728"></rect><rect x="61.23560493158108" y="519.1114825" width="14.36390732963013" height="0.8885175000000345" fill="#9467bd"></rect><rect x="76.35550738382332" y="515.93204" width="14.36390732963013" height="4.067959999999971" fill="#8c564b"></rect></g><g transform="translate(0,520)" fill="none" font-size="10" font-family="sans-serif" text-anchor="middle"><path class="domain" stroke="currentColor" d="M0.5,6V0.5H620.5V6"></path><g class="tick" opacity="1" transform="translate(55.901639344262286,0)"><line stroke="currentColor" y2="6"></line><text fill="currentColor" y="9" dy="0.71em">1e1</text></g><g class="tick" opacity="1" transform="translate(157.54098360655735,0)"><line stroke="currentColor" y2="6"></line><text fill="currentColor" y="9" dy="0.71em">1e2</text></g><g class="tick" opacity="1" transform="translate(259.18032786885243,0)"><line stroke="currentColor" y2="6"></line><text fill="currentColor" y="9" dy="0.71em">1e3</text></g><g class="tick" opacity="1" transform="translate(360.81967213114746,0)"><line stroke="currentColor" y2="6"></line><text fill="currentColor" y="9" dy="0.71em">1e4</text></g><g class="tick" opacity="1" transform="translate(462.45901639344254,0)"><line stroke="currentColor" y2="6"></line><text fill="currentColor" y="9" dy="0.71em">1e5</text></g><g class="tick" opacity="1" transform="translate(564.0983606557377,0)"><line stroke="currentColor" y2="6"></line><text fill="currentColor" y="9" dy="0.71em">1e6</text></g></g><text x="310" y="550" text-anchor="middle" font-size="12px" fill="black">Unit: times</text><g fill="none" font-size="10" font-family="sans-serif" text-anchor="end"><path class="domain" stroke="currentColor" d="M-6,520.5H0.5V0.5H-6"></path><g class="tick" opacity="1" transform="translate(0,520.5)"><line stroke="currentColor" x2="-6"></line><text fill="currentColor" x="-9" dy="0.32em">0</text></g><g class="tick" opacity="1" transform="translate(0,455.5)"><line stroke="currentColor" x2="-6"></line><text fill="currentColor" x="-9" dy="0.32em">20,000</text></g><g class="tick" opacity="1" transform="translate(0,390.5)"><line stroke="currentColor" x2="-6"></line><text fill="currentColor" x="-9" dy="0.32em">40,000</text></g><g class="tick" opacity="1" transform="translate(0,325.5)"><line stroke="currentColor" x2="-6"></line><text fill="currentColor" x="-9" dy="0.32em">60,000</text></g><g class="tick" opacity="1" transform="translate(0,260.5)"><line stroke="currentColor" x2="-6"></line><text fill="currentColor" x="-9" dy="0.32em">80,000</text></g><g class="tick" opacity="1" transform="translate(0,195.5)"><line stroke="currentColor" x2="-6"></line><text fill="currentColor" x="-9" dy="0.32em">100,000</text></g><g class="tick" opacity="1" transform="translate(0,130.5)"><line stroke="currentColor" x2="-6"></line><text fill="currentColor" x="-9" dy="0.32em">120,000</text></g><g class="tick" opacity="1" transform="translate(0,65.5)"><line stroke="currentColor" x2="-6"></line><text fill="currentColor" x="-9" dy="0.32em">140,000</text></g><g class="tick" opacity="1" transform="translate(0,0.5)"><line stroke="currentColor" x2="-6"></line><text fill="currentColor" x="-9" dy="0.32em">160,000</text></g></g><text x="-260" y="-40" transform="rotate(-90)" text-anchor="middle" font-size="12px" fill="black">Unit: ns/op</text><g transform="translate(640, 0)"><g transform="translate(0, 0)"><rect width="15" height="15" fill="#1f77b4"></rect><text x="20" y="12" text-anchor="start" font-size="10px" fill="#1f77b4">SetQueue</text></g><g transform="translate(0, 20)"><rect width="15" height="15" fill="#ff7f0e"></rect><text x="20" y="12" text-anchor="start" font-size="10px" fill="#ff7f0e">MapQueue</text></g><g transform="translate(0, 40)"><rect width="15" height="15" fill="#2ca02c"></rect><text x="20" y="12" text-anchor="start" font-size="10px" fill="#2ca02c">ArrayQueue</text></g><g transform="translate(0, 60)"><rect width="15" height="15" fill="#d62728"></rect><text x="20" y="12" text-anchor="start" font-size="10px" fill="#d62728">DequeQueue</text></g><g transform="translate(0, 80)"><rect width="15" height="15" fill="#9467bd"></rect><text x="20" y="12" text-anchor="start" font-size="10px" fill="#9467bd">CircularQueue</text></g><g transform="translate(0, 100)"><rect width="15" height="15" fill="#8c564b"></rect><text x="20" y="12" text-anchor="start" font-size="10px" fill="#8c564b">LinkedListQueue</text></g></g></g><text x="400" y="20" text-anchor="middle" font-size="16px" font-weight="bold">Dequeue Benchmark</text><text x="400" y="40" text-anchor="middle" font-size="12px">Lower is better</text></svg>