<?xml version="1.0" encoding="utf-8"?><svg width="800" height="600" xmlns="http://www.w3.org/2000/svg" xmlns:xlink="http://www.w3.org/1999/xlink" style="background-color: white;"><g transform="translate(60,40)"><g transform="translate(12.156862745098067,0)"><rect x="0.5443371378402091" y="505.78222500000004" width="10.342405618964003" height="14.21777499999996" fill="#1f77b4"></rect><rect x="11.431079894644423" y="509.059525" width="10.342405618964003" height="10.940474999999992" fill="#ff7f0e"></rect><rect x="22.317822651448637" y="512.918575" width="10.342405618964003" height="7.081424999999967" fill="#2ca02c"></rect><rect x="33.204565408252854" y="511.006925" width="10.342405618964003" height="8.993074999999976" fill="#d62728"></rect><rect x="44.091308165057065" y="512.9319" width="10.342405618964003" height="7.0680999999999585" fill="#9467bd"></rect><rect x="54.978050921861275" y="513.864975" width="10.342405618964003" height="6.1350250000000415" fill="#8c564b"></rect><rect x="65.8647936786655" y="513.21595" width="10.342405618964003" height="6.784049999999979" fill="#e377c2"></rect><rect x="76.75153643546972" y="515.233225" width="10.342405618964003" height="4.766775000000052" fill="#7f7f7f"></rect><rect x="87.63827919227393" y="509.168075" width="10.342405618964003" height="10.831925000000012" fill="#bcbd22"></rect><rect x="98.52502194907814" y="503.005425" width="10.342405618964003" height="16.994574999999998" fill="#17becf"></rect></g><g transform="translate(133.72549019607845,0)"><rect x="0.5443371378402091" y="511.77977500000003" width="10.342405618964003" height="8.22022499999997" fill="#1f77b4"></rect><rect x="11.431079894644423" y="514.894575" width="10.342405618964003" height="5.105424999999968" fill="#ff7f0e"></rect><rect x="22.317822651448637" y="514.082725" width="10.342405618964003" height="5.917275000000018" fill="#2ca02c"></rect><rect x="33.204565408252854" y="515.3421000000001" width="10.342405618964003" height="4.657899999999927" fill="#d62728"></rect><rect x="44.091308165057065" y="516.6030999999999" width="10.342405618964003" height="3.3969000000000733" fill="#9467bd"></rect><rect x="54.978050921861275" y="516.936225" width="10.342405618964003" height="3.063774999999964" fill="#8c564b"></rect><rect x="65.8647936786655" y="517.27715" width="10.342405618964003" height="2.722849999999994" fill="#e377c2"></rect><rect x="76.75153643546972" y="517.482225" width="10.342405618964003" height="2.5177750000000287" fill="#7f7f7f"></rect><rect x="87.63827919227393" y="515.570575" width="10.342405618964003" height="4.4294250000000375" fill="#bcbd22"></rect><rect x="98.52502194907814" y="517.6980249999999" width="10.342405618964003" height="2.301975000000084" fill="#17becf"></rect></g><g transform="translate(255.2941176470588,0)"><rect x="0.5443371378402091" y="514.3424" width="10.342405618964003" height="5.657600000000002" fill="#1f77b4"></rect><rect x="11.431079894644423" y="514.18965" width="10.342405618964003" height="5.810349999999971" fill="#ff7f0e"></rect><rect x="22.317822651448637" y="507.719875" width="10.342405618964003" height="12.280124999999998" fill="#2ca02c"></rect><rect x="33.204565408252854" y="515.707725" width="10.342405618964003" height="4.292275000000018" fill="#d62728"></rect><rect x="44.091308165057065" y="517.5053" width="10.342405618964003" height="2.494699999999966" fill="#9467bd"></rect><rect x="54.978050921861275" y="515.665475" width="10.342405618964003" height="4.334524999999985" fill="#8c564b"></rect><rect x="65.8647936786655" y="517.2635" width="10.342405618964003" height="2.736499999999978" fill="#e377c2"></rect><rect x="76.75153643546972" y="517.19915" width="10.342405618964003" height="2.8008499999999685" fill="#7f7f7f"></rect><rect x="87.63827919227393" y="514.664475" width="10.342405618964003" height="5.335524999999961" fill="#bcbd22"></rect><rect x="98.52502194907814" y="517.5885000000001" width="10.342405618964003" height="2.4114999999999327" fill="#17becf"></rect></g><g transform="translate(376.86274509803917,0)"><rect x="0.5443371378402091" y="515.5829249999999" width="10.342405618964003" height="4.417075000000068" fill="#1f77b4"></rect><rect x="11.431079894644423" y="515.612175" width="10.342405618964003" height="4.387825000000021" fill="#ff7f0e"></rect><rect x="22.317822651448637" y="467.29605" width="10.342405618964003" height="52.70395000000002" fill="#2ca02c"></rect><rect x="33.204565408252854" y="515.1263" width="10.342405618964003" height="4.873699999999985" fill="#d62728"></rect><rect x="44.091308165057065" y="517.1712" width="10.342405618964003" height="2.828800000000001" fill="#9467bd"></rect><rect x="54.978050921861275" y="516.4133" width="10.342405618964003" height="3.5866999999999507" fill="#8c564b"></rect><rect x="65.8647936786655" y="517.034375" width="10.342405618964003" height="2.9656250000000455" fill="#e377c2"></rect><rect x="76.75153643546972" y="517.31875" width="10.342405618964003" height="2.6812499999999773" fill="#7f7f7f"></rect><rect x="87.63827919227393" y="503.76007500000003" width="10.342405618964003" height="16.23992499999997" fill="#bcbd22"></rect><rect x="98.52502194907814" y="516.939475" width="10.342405618964003" height="3.060524999999984" fill="#17becf"></rect></g><g transform="translate(498.43137254901956,0)"><rect x="0.5443371378402091" y="406.70955" width="10.342405618964003" height="113.29045000000002" fill="#1f77b4"></rect><rect x="11.431079894644423" y="503.24755" width="10.342405618964003" height="16.75245000000001" fill="#ff7f0e"></rect><rect x="22.317822651448637" y="63.632075" width="10.342405618964003" height="456.367925" fill="#2ca02c"></rect><rect x="33.204565408252854" y="514.1253" width="10.342405618964003" height="5.874699999999962" fill="#d62728"></rect><rect x="44.091308165057065" y="515.74835" width="10.342405618964003" height="4.251650000000041" fill="#9467bd"></rect><rect x="54.978050921861275" y="513.876675" width="10.342405618964003" height="6.1233250000000226" fill="#8c564b"></rect><rect x="65.8647936786655" y="517.319725" width="10.342405618964003" height="2.6802750000000515" fill="#e377c2"></rect><rect x="76.75153643546972" y="506.919075" width="10.342405618964003" height="13.08092499999998" fill="#7f7f7f"></rect><rect x="87.63827919227393" y="409.41875" width="10.342405618964003" height="110.58125000000001" fill="#bcbd22"></rect><rect x="98.52502194907814" y="517.792925" width="10.342405618964003" height="2.2070750000000317" fill="#17becf"></rect></g><g transform="translate(0,520)" fill="none" font-size="10" font-family="sans-serif" text-anchor="middle"><path class="domain" stroke="currentColor" d="M0.5,6V0.5H620.5V6"></path><g class="tick" opacity="1" transform="translate(66.86274509803923,0)"><line stroke="currentColor" y2="6"></line><text fill="currentColor" y="9" dy="0.71em">1e1</text></g><g class="tick" opacity="1" transform="translate(188.4313725490196,0)"><line stroke="currentColor" y2="6"></line><text fill="currentColor" y="9" dy="0.71em">1e2</text></g><g class="tick" opacity="1" transform="translate(310,0)"><line stroke="currentColor" y2="6"></line><text fill="currentColor" y="9" dy="0.71em">1e3</text></g><g class="tick" opacity="1" transform="translate(431.56862745098033,0)"><line stroke="currentColor" y2="6"></line><text fill="currentColor" y="9" dy="0.71em">1e4</text></g><g class="tick" opacity="1" transform="translate(553.1372549019608,0)"><line stroke="currentColor" y2="6"></line><text fill="currentColor" y="9" dy="0.71em">1e5</text></g></g><text x="310" y="550" text-anchor="middle" font-size="12px" fill="black">Operate on the number of existing elements</text><g fill="none" font-size="10" font-family="sans-serif" text-anchor="end"><path class="domain" stroke="currentColor" d="M-6,520.5H0.5V0.5H-6"></path><g class="tick" opacity="1" transform="translate(0,520.5)"><line stroke="currentColor" x2="-6"></line><text fill="currentColor" x="-9" dy="0.32em">0</text></g><g class="tick" opacity="1" transform="translate(0,455.5)"><line stroke="currentColor" x2="-6"></line><text fill="currentColor" x="-9" dy="0.32em">2,000</text></g><g class="tick" opacity="1" transform="translate(0,390.5)"><line stroke="currentColor" x2="-6"></line><text fill="currentColor" x="-9" dy="0.32em">4,000</text></g><g class="tick" opacity="1" transform="translate(0,325.5)"><line stroke="currentColor" x2="-6"></line><text fill="currentColor" x="-9" dy="0.32em">6,000</text></g><g class="tick" opacity="1" transform="translate(0,260.5)"><line stroke="currentColor" x2="-6"></line><text fill="currentColor" x="-9" dy="0.32em">8,000</text></g><g class="tick" opacity="1" transform="translate(0,195.5)"><line stroke="currentColor" x2="-6"></line><text fill="currentColor" x="-9" dy="0.32em">10,000</text></g><g class="tick" opacity="1" transform="translate(0,130.5)"><line stroke="currentColor" x2="-6"></line><text fill="currentColor" x="-9" dy="0.32em">12,000</text></g><g class="tick" opacity="1" transform="translate(0,65.5)"><line stroke="currentColor" x2="-6"></line><text fill="currentColor" x="-9" dy="0.32em">14,000</text></g><g class="tick" opacity="1" transform="translate(0,0.5)"><line stroke="currentColor" x2="-6"></line><text fill="currentColor" x="-9" dy="0.32em">16,000</text></g></g><text x="-260" y="-40" transform="rotate(-90)" text-anchor="middle" font-size="12px" fill="black">ns/op</text><g transform="translate(640, 0)"><g transform="translate(0, 0)"><rect width="15" height="15" fill="#1f77b4"></rect><text x="20" y="12" text-anchor="start" font-size="10px" fill="#1f77b4">SetQueue</text></g><g transform="translate(0, 20)"><rect width="15" height="15" fill="#ff7f0e"></rect><text x="20" y="12" text-anchor="start" font-size="10px" fill="#ff7f0e">MapQueue</text></g><g transform="translate(0, 40)"><rect width="15" height="15" fill="#2ca02c"></rect><text x="20" y="12" text-anchor="start" font-size="10px" fill="#2ca02c">ArrayQueue</text></g><g transform="translate(0, 60)"><rect width="15" height="15" fill="#d62728"></rect><text x="20" y="12" text-anchor="start" font-size="10px" fill="#d62728">DequeQueue</text></g><g transform="translate(0, 80)"><rect width="15" height="15" fill="#9467bd"></rect><text x="20" y="12" text-anchor="start" font-size="10px" fill="#9467bd">CircularQueue</text></g><g transform="translate(0, 100)"><rect width="15" height="15" fill="#8c564b"></rect><text x="20" y="12" text-anchor="start" font-size="10px" fill="#8c564b">LinkedListQueue</text></g><g transform="translate(0, 120)"><rect width="15" height="15" fill="#e377c2"></rect><text x="20" y="12" text-anchor="start" font-size="10px" fill="#e377c2">LinkedListQueue2</text></g><g transform="translate(0, 140)"><rect width="15" height="15" fill="#7f7f7f"></rect><text x="20" y="12" text-anchor="start" font-size="10px" fill="#7f7f7f">WebpackQueue</text></g><g transform="translate(0, 160)"><rect width="15" height="15" fill="#bcbd22"></rect><text x="20" y="12" text-anchor="start" font-size="10px" fill="#bcbd22">WebpackQueue2</text></g><g transform="translate(0, 180)"><rect width="15" height="15" fill="#17becf"></rect><text x="20" y="12" text-anchor="start" font-size="10px" fill="#17becf">YoctoQueue</text></g></g></g><text x="400" y="20" text-anchor="middle" font-size="16px" font-weight="bold">Dequeue Benchmark</text><text x="400" y="40" text-anchor="middle" font-size="12px">Lower is better</text></svg>