<?xml version="1.0" encoding="utf-8"?><svg width="800" height="600" xmlns="http://www.w3.org/2000/svg" xmlns:xlink="http://www.w3.org/1999/xlink" style="background-color: white;"><g transform="translate(60,40)"><g transform="translate(12.156862745098067,0)"><rect x="0.5443371378402091" y="512.5870285714286" width="10.342405618964003" height="7.412971428571382" fill="#1f77b4"></rect><rect x="11.431079894644423" y="513.0513142857143" width="10.342405618964003" height="6.948685714285716" fill="#ff7f0e"></rect><rect x="22.317822651448637" y="516.6445142857143" width="10.342405618964003" height="3.3554857142856918" fill="#2ca02c"></rect><rect x="33.204565408252854" y="515.1721714285715" width="10.342405618964003" height="4.82782857142854" fill="#d62728"></rect><rect x="44.091308165057065" y="515.4644857142857" width="10.342405618964003" height="4.535514285714271" fill="#9467bd"></rect><rect x="54.978050921861275" y="514.8616571428571" width="10.342405618964003" height="5.138342857142902" fill="#8c564b"></rect><rect x="65.8647936786655" y="516.5453428571428" width="10.342405618964003" height="3.4546571428571724" fill="#e377c2"></rect><rect x="76.75153643546972" y="517.2596" width="10.342405618964003" height="2.7404000000000224" fill="#7f7f7f"></rect><rect x="87.63827919227393" y="514.1188" width="10.342405618964003" height="5.881200000000035" fill="#bcbd22"></rect><rect x="98.52502194907814" y="517.2135428571429" width="10.342405618964003" height="2.7864571428571026" fill="#17becf"></rect></g><g transform="translate(133.72549019607845,0)"><rect x="0.5443371378402091" y="515.3426571428572" width="10.342405618964003" height="4.657342857142794" fill="#1f77b4"></rect><rect x="11.431079894644423" y="513.9505428571429" width="10.342405618964003" height="6.049457142857136" fill="#ff7f0e"></rect><rect x="22.317822651448637" y="516.4710571428571" width="10.342405618964003" height="3.5289428571428516" fill="#2ca02c"></rect><rect x="33.204565408252854" y="511.64174285714284" width="10.342405618964003" height="8.358257142857155" fill="#d62728"></rect><rect x="44.091308165057065" y="516.2849714285715" width="10.342405618964003" height="3.7150285714285474" fill="#9467bd"></rect><rect x="54.978050921861275" y="516.8109142857143" width="10.342405618964003" height="3.1890857142857385" fill="#8c564b"></rect><rect x="65.8647936786655" y="516.2701142857143" width="10.342405618964003" height="3.7298857142857287" fill="#e377c2"></rect><rect x="76.75153643546972" y="516.6864857142857" width="10.342405618964003" height="3.313514285714291" fill="#7f7f7f"></rect><rect x="87.63827919227393" y="515.1246285714286" width="10.342405618964003" height="4.875371428571384" fill="#bcbd22"></rect><rect x="98.52502194907814" y="517.1812285714285" width="10.342405618964003" height="2.8187714285714947" fill="#17becf"></rect></g><g transform="translate(255.2941176470588,0)"><rect x="0.5443371378402091" y="515.7597714285714" width="10.342405618964003" height="4.240228571428588" fill="#1f77b4"></rect><rect x="11.431079894644423" y="514.8323142857143" width="10.342405618964003" height="5.167685714285653" fill="#ff7f0e"></rect><rect x="22.317822651448637" y="509.5818" width="10.342405618964003" height="10.418200000000013" fill="#2ca02c"></rect><rect x="33.204565408252854" y="516.4387428571429" width="10.342405618964003" height="3.56125714285713" fill="#d62728"></rect><rect x="44.091308165057065" y="516.7652285714286" width="10.342405618964003" height="3.2347714285714346" fill="#9467bd"></rect><rect x="54.978050921861275" y="514.5507714285715" width="10.342405618964003" height="5.4492285714285345" fill="#8c564b"></rect><rect x="65.8647936786655" y="516.9026571428572" width="10.342405618964003" height="3.0973428571428485" fill="#e377c2"></rect><rect x="76.75153643546972" y="517.1544857142858" width="10.342405618964003" height="2.8455142857142164" fill="#7f7f7f"></rect><rect x="87.63827919227393" y="515.9740857142857" width="10.342405618964003" height="4.025914285714293" fill="#bcbd22"></rect><rect x="98.52502194907814" y="517.1548571428572" width="10.342405618964003" height="2.8451428571428323" fill="#17becf"></rect></g><g transform="translate(376.86274509803917,0)"><rect x="0.5443371378402091" y="517.1674857142857" width="10.342405618964003" height="2.8325142857142964" fill="#1f77b4"></rect><rect x="11.431079894644423" y="517.0304285714286" width="10.342405618964003" height="2.969571428571385" fill="#ff7f0e"></rect><rect x="22.317822651448637" y="464.34402857142857" width="10.342405618964003" height="55.65597142857143" fill="#2ca02c"></rect><rect x="33.204565408252854" y="516.6549142857143" width="10.342405618964003" height="3.3450857142856876" fill="#d62728"></rect><rect x="44.091308165057065" y="517.7086571428571" width="10.342405618964003" height="2.291342857142922" fill="#9467bd"></rect><rect x="54.978050921861275" y="517.9263142857143" width="10.342405618964003" height="2.073685714285716" fill="#8c564b"></rect><rect x="65.8647936786655" y="517.6473714285714" width="10.342405618964003" height="2.3526285714285677" fill="#e377c2"></rect><rect x="76.75153643546972" y="518.0199142857143" width="10.342405618964003" height="1.9800857142856785" fill="#7f7f7f"></rect><rect x="87.63827919227393" y="515.7761142857144" width="10.342405618964003" height="4.223885714285643" fill="#bcbd22"></rect><rect x="98.52502194907814" y="517.6016857142857" width="10.342405618964003" height="2.398314285714264" fill="#17becf"></rect></g><g transform="translate(498.43137254901956,0)"><rect x="0.5443371378402091" y="511.3475714285714" width="10.342405618964003" height="8.652428571428572" fill="#1f77b4"></rect><rect x="11.431079894644423" y="510.7462285714286" width="10.342405618964003" height="9.253771428571383" fill="#ff7f0e"></rect><rect x="22.317822651448637" y="6.407885714285739" width="10.342405618964003" height="513.5921142857143" fill="#2ca02c"></rect><rect x="33.204565408252854" y="514.7524571428571" width="10.342405618964003" height="5.247542857142889" fill="#d62728"></rect><rect x="44.091308165057065" y="516.6099714285714" width="10.342405618964003" height="3.3900285714286156" fill="#9467bd"></rect><rect x="54.978050921861275" y="517.3535714285714" width="10.342405618964003" height="2.6464285714286007" fill="#8c564b"></rect><rect x="65.8647936786655" y="515.9287714285714" width="10.342405618964003" height="4.071228571428605" fill="#e377c2"></rect><rect x="76.75153643546972" y="517.9110857142857" width="10.342405618964003" height="2.0889142857142815" fill="#7f7f7f"></rect><rect x="87.63827919227393" y="508.9663428571429" width="10.342405618964003" height="11.033657142857123" fill="#bcbd22"></rect><rect x="98.52502194907814" y="517.4624" width="10.342405618964003" height="2.5375999999999976" fill="#17becf"></rect></g><g transform="translate(0,520)" fill="none" font-size="10" font-family="sans-serif" text-anchor="middle"><path class="domain" stroke="currentColor" d="M0.5,6V0.5H620.5V6"></path><g class="tick" opacity="1" transform="translate(66.86274509803923,0)"><line stroke="currentColor" y2="6"></line><text fill="currentColor" y="9" dy="0.71em">1e1</text></g><g class="tick" opacity="1" transform="translate(188.4313725490196,0)"><line stroke="currentColor" y2="6"></line><text fill="currentColor" y="9" dy="0.71em">1e2</text></g><g class="tick" opacity="1" transform="translate(310,0)"><line stroke="currentColor" y2="6"></line><text fill="currentColor" y="9" dy="0.71em">1e3</text></g><g class="tick" opacity="1" transform="translate(431.56862745098033,0)"><line stroke="currentColor" y2="6"></line><text fill="currentColor" y="9" dy="0.71em">1e4</text></g><g class="tick" opacity="1" transform="translate(553.1372549019608,0)"><line stroke="currentColor" y2="6"></line><text fill="currentColor" y="9" dy="0.71em">1e5</text></g></g><text x="310" y="550" text-anchor="middle" font-size="12px" fill="black">Operate on the number of existing elements</text><g fill="none" font-size="10" font-family="sans-serif" text-anchor="end"><path class="domain" stroke="currentColor" d="M-6,520.5H0.5V0.5H-6"></path><g class="tick" opacity="1" transform="translate(0,520.5)"><line stroke="currentColor" x2="-6"></line><text fill="currentColor" x="-9" dy="0.32em">0</text></g><g class="tick" opacity="1" transform="translate(0,483.3571428571429)"><line stroke="currentColor" x2="-6"></line><text fill="currentColor" x="-9" dy="0.32em">1,000</text></g><g class="tick" opacity="1" transform="translate(0,446.2142857142857)"><line stroke="currentColor" x2="-6"></line><text fill="currentColor" x="-9" dy="0.32em">2,000</text></g><g class="tick" opacity="1" transform="translate(0,409.07142857142856)"><line stroke="currentColor" x2="-6"></line><text fill="currentColor" x="-9" dy="0.32em">3,000</text></g><g class="tick" opacity="1" transform="translate(0,371.92857142857144)"><line stroke="currentColor" x2="-6"></line><text fill="currentColor" x="-9" dy="0.32em">4,000</text></g><g class="tick" opacity="1" transform="translate(0,334.7857142857143)"><line stroke="currentColor" x2="-6"></line><text fill="currentColor" x="-9" dy="0.32em">5,000</text></g><g class="tick" opacity="1" transform="translate(0,297.6428571428571)"><line stroke="currentColor" x2="-6"></line><text fill="currentColor" x="-9" dy="0.32em">6,000</text></g><g class="tick" opacity="1" transform="translate(0,260.5)"><line stroke="currentColor" x2="-6"></line><text fill="currentColor" x="-9" dy="0.32em">7,000</text></g><g class="tick" opacity="1" transform="translate(0,223.35714285714286)"><line stroke="currentColor" x2="-6"></line><text fill="currentColor" x="-9" dy="0.32em">8,000</text></g><g class="tick" opacity="1" transform="translate(0,186.2142857142857)"><line stroke="currentColor" x2="-6"></line><text fill="currentColor" x="-9" dy="0.32em">9,000</text></g><g class="tick" opacity="1" transform="translate(0,149.07142857142856)"><line stroke="currentColor" x2="-6"></line><text fill="currentColor" x="-9" dy="0.32em">10,000</text></g><g class="tick" opacity="1" transform="translate(0,111.92857142857143)"><line stroke="currentColor" x2="-6"></line><text fill="currentColor" x="-9" dy="0.32em">11,000</text></g><g class="tick" opacity="1" transform="translate(0,74.7857142857143)"><line stroke="currentColor" x2="-6"></line><text fill="currentColor" x="-9" dy="0.32em">12,000</text></g><g class="tick" opacity="1" transform="translate(0,37.642857142857125)"><line stroke="currentColor" x2="-6"></line><text fill="currentColor" x="-9" dy="0.32em">13,000</text></g><g class="tick" opacity="1" transform="translate(0,0.5)"><line stroke="currentColor" x2="-6"></line><text fill="currentColor" x="-9" dy="0.32em">14,000</text></g></g><text x="-260" y="-40" transform="rotate(-90)" text-anchor="middle" font-size="12px" fill="black">ns/op</text><g transform="translate(640, 0)"><g transform="translate(0, 0)"><rect width="15" height="15" fill="#1f77b4"></rect><text x="20" y="12" text-anchor="start" font-size="10px" fill="#1f77b4">SetQueue</text></g><g transform="translate(0, 20)"><rect width="15" height="15" fill="#ff7f0e"></rect><text x="20" y="12" text-anchor="start" font-size="10px" fill="#ff7f0e">MapQueue</text></g><g transform="translate(0, 40)"><rect width="15" height="15" fill="#2ca02c"></rect><text x="20" y="12" text-anchor="start" font-size="10px" fill="#2ca02c">ArrayQueue</text></g><g transform="translate(0, 60)"><rect width="15" height="15" fill="#d62728"></rect><text x="20" y="12" text-anchor="start" font-size="10px" fill="#d62728">DequeQueue</text></g><g transform="translate(0, 80)"><rect width="15" height="15" fill="#9467bd"></rect><text x="20" y="12" text-anchor="start" font-size="10px" fill="#9467bd">CircularQueue</text></g><g transform="translate(0, 100)"><rect width="15" height="15" fill="#8c564b"></rect><text x="20" y="12" text-anchor="start" font-size="10px" fill="#8c564b">LinkedListQueue</text></g><g transform="translate(0, 120)"><rect width="15" height="15" fill="#e377c2"></rect><text x="20" y="12" text-anchor="start" font-size="10px" fill="#e377c2">LinkedListQueue2</text></g><g transform="translate(0, 140)"><rect width="15" height="15" fill="#7f7f7f"></rect><text x="20" y="12" text-anchor="start" font-size="10px" fill="#7f7f7f">WebpackQueue</text></g><g transform="translate(0, 160)"><rect width="15" height="15" fill="#bcbd22"></rect><text x="20" y="12" text-anchor="start" font-size="10px" fill="#bcbd22">WebpackQueue2</text></g><g transform="translate(0, 180)"><rect width="15" height="15" fill="#17becf"></rect><text x="20" y="12" text-anchor="start" font-size="10px" fill="#17becf">YoctoQueue</text></g></g></g><text x="400" y="20" text-anchor="middle" font-size="16px" font-weight="bold">Dequeue Benchmark</text><text x="400" y="40" text-anchor="middle" font-size="12px">Lower is better</text></svg>